<?xml version="1.0" encoding="utf-8"?><svg xml:space="preserve" viewBox="0 0 100 100" y="0" x="0" xmlns="http://www.w3.org/2000/svg" id="圖層_1" version="1.1" width="200px" height="200px" xmlns:xlink="http://www.w3.org/1999/xlink" style="width:100%;height:100%;background-size:initial;background-repeat-y:initial;background-repeat-x:initial;background-position-y:initial;background-position-x:initial;background-origin:initial;background-image:initial;background-color:rgb(255, 174, 0);background-clip:initial;background-attachment:initial;animation-play-state:paused" ><g class="ldl-scale" style="transform-origin:50% 50%;transform:rotate(0deg) scale(0.8, 0.8);animation-play-state:paused" ><g style="animation-play-state:paused" ><path stroke="#333" fill="#f3e5c7" stroke-miterlimit="10" stroke-linejoin="round" stroke-width="3.5" d="M31.2 81.1l30.2-52.3c1.1-1.8.4-4.2-1.4-5.2-1.8-1.1-4.2-.4-5.2 1.4L24.5 77.3c-2-.6-4.2.2-5.3 2-1.3 2.2-.5 4.9 1.7 6.2.9.5 2 .7 3 .5.4 1 1 1.8 2 2.3 2.2 1.3 4.9.5 6.2-1.7 1.1-1.8.6-4.1-.9-5.5z" style="stroke:rgb(51, 51, 51);fill:rgb(243, 229, 199);animation-play-state:paused" ></path>
<path stroke-miterlimit="10" stroke-linejoin="round" stroke-width="3.5" stroke="#000" opacity=".2" d="M27.9 81.1c1.5 1.4 1.8 4 .6 6.1-.4.7-.9 1.2-1.5 1.6 1.9.4 3.9-.4 5-2.1 1.1-1.9.7-4.2-.9-5.6l30.2-52.3c.9-1.5.6-3.4-.6-4.6L27.9 81.1z" style="animation-play-state:paused" ></path></g>
<g style="animation-play-state:paused" ><path stroke-miterlimit="10" stroke-linejoin="round" stroke-width="3.5" stroke="#333" fill="#67503b" d="M63.1 17.6C49.9 10 36.3 8.8 32.8 15l-.1-.1c-3.3 6.5-3.9 13.7-2.1 20.2.6 2.2.2 4.4-1 6.3-.2.3-.3.5-.5.8-4.9 8.4-2.2 19.2 6.1 23.9 8.2 4.8 18.9 1.8 23.8-6.7.2-.3.3-.5.4-.8 1-2 2.8-3.5 4.9-4 6.5-1.8 12.4-5.9 16.4-11.9l-.1-.1c3.5-6.2-4.3-17.4-17.5-25z" style="stroke:rgb(51, 51, 51);fill:rgb(103, 80, 59);animation-play-state:paused" ></path>
<path stroke-miterlimit="10" stroke-linejoin="round" stroke-width="3.5" stroke="#000" opacity=".2" d="M77.9 30.3c-.1 1.1-.5 2.1-1 3l.1.1C72.2 40.9 65 46 57 48.2c-2.6.7-4.8 2.5-6 5-.2.3-.3.7-.5 1-3.7 6.5-10.1 10.3-16.8 11 .5.3 1 .7 1.5 1C43.4 71 54.1 68 59 59.5c.2-.3.3-.5.4-.8 1-2 2.8-3.5 4.9-4 6.5-1.8 12.4-5.9 16.4-11.9l-.1-.1c1.7-3.3.6-7.7-2.7-12.4z" style="animation-play-state:paused" ></path>
<path stroke-miterlimit="10" stroke-linejoin="round" stroke-width="3.5" stroke-linecap="round" stroke="#fff" d="M35.4 41.6c-1.2 2.2-4.7 6-3.4 10.7" style="stroke:rgb(255, 255, 255);animation-play-state:paused" ></path>
<path d="M32.9 56.6l.4.6" stroke-miterlimit="10" stroke-linejoin="round" stroke-width="3.5" stroke-linecap="round" stroke="#fff" style="stroke:rgb(255, 255, 255);animation-play-state:paused" ></path></g>
<g style="animation-play-state:paused" ><ellipse stroke-miterlimit="10" stroke-linejoin="round" stroke-width="3.5" stroke="#333" fill="#f37e5f" ry="27.6" rx="12.9" cy="28.8" cx="56.6" transform="rotate(-60 56.645 28.76)" style="stroke:rgb(51, 51, 51);fill:rgb(243, 126, 95);animation-play-state:paused" ></ellipse>
<path stroke-miterlimit="10" stroke-linejoin="round" stroke-width="3.5" stroke="#000" opacity=".2" d="M72.5 24.3c1.3 4.1 1.1 8.2-.9 11.6-2.8 4.8-8.5 7.2-15.1 7.1 11 4.7 21.1 4.7 24.1-.5 2.5-4.5-.9-11.7-8.1-18.2z" style="animation-play-state:paused" ></path>
<ellipse stroke="#333" fill="#f3e5c7" stroke-miterlimit="10" stroke-linejoin="round" stroke-width="3.5" ry="9.4" rx="4.4" cy="28.8" cx="56.6" transform="rotate(-60 56.644 28.76)" style="stroke:rgb(51, 51, 51);fill:rgb(243, 229, 199);animation-play-state:paused" ></ellipse></g>
<metadata xmlns:d="https://loading.io/stock/" style="animation-play-state:paused" ><d:name style="animation-play-state:paused" >ham</d:name>
<d:tags style="animation-play-state:paused" >ham,meat,pork,beef,pork knuckle,ham hock,chicken legs,wing stick,schweinshaxe,eisbein,food,gourmet</d:tags>
<d:license style="animation-play-state:paused" >by</d:license>
<d:slug style="animation-play-state:paused" >frq4fq</d:slug></metadata></g><!-- generated by https://loading.io/ --></svg>